<?xml version="1.0"?>
<svg xmlns="http://www.w3.org/2000/svg" xmlns:xlink="http://www.w3.org/1999/xlink" xmlns:svgjs="http://svgjs.com/svgjs" version="1.1" width="512" height="512" x="0" y="0" viewBox="0 0 512 512" style="enable-background:new 0 0 512 512" xml:space="preserve" class=""><g><link type="text/css" rel="stylesheet" id="dark-mode-custom-link"/><link type="text/css" rel="stylesheet" id="dark-mode-general-link"/><style lang="en" type="text/css" id="dark-mode-custom-style"/><style lang="en" type="text/css" id="dark-mode-native-style"/><path xmlns="http://www.w3.org/2000/svg" d="m181 181h-60v60h60c16.539062 0 30-13.460938 30-30s-13.460938-30-30-30zm0 0" fill="#212121" data-original="#000000" style="" class=""/><path xmlns="http://www.w3.org/2000/svg" d="m181 271h-60v60h60c16.539062 0 30-13.460938 30-30s-13.460938-30-30-30zm0 0" fill="#212121" data-original="#000000" style="" class=""/><path xmlns="http://www.w3.org/2000/svg" d="m346 241c-19.554688 0-36.238281 12.539062-42.4375 30h84.875c-6.199219-17.460938-22.882812-30-42.4375-30zm0 0" fill="#212121" data-original="#000000" style="" class=""/><path xmlns="http://www.w3.org/2000/svg" d="m436 0h-361c-41.351562 0-75 33.648438-75 75v362c0 41.351562 33.648438 75 75 75h361c41.351562 0 76-33.648438 76-75v-362c0-41.351562-34.648438-75-76-75zm-150 151h120v30h-120zm-45 150c0 33.089844-26.910156 60-60 60h-90v-210h90c33.089844 0 60 26.910156 60 60 0 18.007812-8.132812 33.996094-20.730469 45 12.597657 11.003906 20.730469 26.992188 20.730469 45zm180 0h-117.4375c6.195312 17.460938 22.882812 30 42.4375 30 16.011719 0 30.953125-8.628906 38.992188-22.515625l25.957031 15.03125c-13.371094 23.113281-38.261719 37.484375-64.949219 37.484375-41.351562 0-75-33.648438-75-75s33.648438-75 75-75 75 33.648438 75 75zm0 0" fill="#212121" data-original="#000000" style="" class=""/></g></svg>
