<svg width="103" height="25" viewBox="0 0 103 25" fill="none" xmlns="http://www.w3.org/2000/svg">
<path d="M4.032 3.6V11.616H13.456V14.144H4.032V24H0.928V1.072H15.056V3.6H4.032Z" fill="#F24E1E"/>
<path d="M22.7657 24H19.6617V1.072H22.7657V24Z" fill="#FF7262"/>
<path d="M47.8945 12.976V21.776C46.7425 22.608 45.5105 23.232 44.1985 23.648C42.8972 24.0533 41.4678 24.256 39.9105 24.256C38.0652 24.256 36.4012 23.9733 34.9185 23.408C33.4358 22.832 32.1665 22.032 31.1105 21.008C30.0652 19.9733 29.2598 18.736 28.6945 17.296C28.1292 15.856 27.8465 14.272 27.8465 12.544C27.8465 10.7947 28.1185 9.2 28.6625 7.76C29.2172 6.32 30.0012 5.088 31.0145 4.064C32.0278 3.02933 33.2598 2.22933 34.7105 1.664C36.1612 1.09867 37.7825 0.815998 39.5745 0.815998C40.4812 0.815998 41.3238 0.885331 42.1025 1.024C42.8812 1.152 43.6012 1.344 44.2625 1.6C44.9238 1.84533 45.5372 2.14933 46.1025 2.512C46.6678 2.864 47.1958 3.264 47.6865 3.712L46.8065 5.12C46.6678 5.33333 46.4865 5.472 46.2625 5.536C46.0492 5.58933 45.8092 5.536 45.5425 5.376C45.2865 5.22667 44.9932 5.04533 44.6625 4.832C44.3318 4.61867 43.9265 4.416 43.4465 4.224C42.9772 4.02133 42.4172 3.85067 41.7665 3.712C41.1265 3.57333 40.3638 3.504 39.4785 3.504C38.1878 3.504 37.0198 3.71733 35.9745 4.144C34.9292 4.56 34.0385 5.16267 33.3025 5.952C32.5665 6.73067 32.0012 7.68 31.6065 8.8C31.2118 9.90933 31.0145 11.1573 31.0145 12.544C31.0145 13.984 31.2172 15.2747 31.6225 16.416C32.0385 17.5467 32.6252 18.512 33.3825 19.312C34.1505 20.1013 35.0785 20.704 36.1665 21.12C37.2545 21.536 38.4758 21.744 39.8305 21.744C40.8972 21.744 41.8412 21.6267 42.6625 21.392C43.4945 21.1467 44.3052 20.8107 45.0945 20.384V15.344H41.5265C41.3238 15.344 41.1585 15.2853 41.0305 15.168C40.9132 15.0507 40.8545 14.9067 40.8545 14.736V12.976H47.8945Z" fill="#A259FF"/>
<path d="M77.1415 1.072V24H74.4215V7.152C74.4215 6.928 74.4268 6.688 74.4375 6.432C74.4588 6.176 74.4802 5.91467 74.5015 5.648L66.6295 19.984C66.3842 20.464 66.0108 20.704 65.5095 20.704H65.0615C64.5602 20.704 64.1868 20.464 63.9415 19.984L55.9095 5.584C55.9735 6.14933 56.0055 6.672 56.0055 7.152V24H53.2855V1.072H55.5735C55.8508 1.072 56.0642 1.09867 56.2135 1.152C56.3628 1.20533 56.5068 1.35467 56.6455 1.6L64.5655 15.712C64.6935 15.968 64.8162 16.2347 64.9335 16.512C65.0615 16.7893 65.1788 17.072 65.2855 17.36C65.3922 17.072 65.5042 16.7893 65.6215 16.512C65.7388 16.224 65.8668 15.952 66.0055 15.696L73.7815 1.6C73.9095 1.35467 74.0482 1.20533 74.1975 1.152C74.3575 1.09867 74.5762 1.072 74.8535 1.072H77.1415Z" fill="#11AABB"/>
<path d="M95.8202 15.488L92.2202 6.16C92.1136 5.88267 92.0016 5.56267 91.8842 5.2C91.7669 4.82667 91.6549 4.432 91.5482 4.016C91.3242 4.88 91.0949 5.6 90.8602 6.176L87.2602 15.488H95.8202ZM102.284 24H99.8842C99.6069 24 99.3829 23.9307 99.2122 23.792C99.0416 23.6533 98.9136 23.4773 98.8282 23.264L96.6842 17.728H86.3962L84.2522 23.264C84.1882 23.456 84.0656 23.6267 83.8842 23.776C83.7029 23.9253 83.4789 24 83.2122 24H80.8122L89.9802 1.072H93.1162L102.284 24Z" fill="#0ACF83"/>
</svg>
