<svg width="132" height="132" fill="none" xmlns="http://www.w3.org/2000/svg">
    <path d="M37.411 53.428v2.088H18.859v-33.96h2.472v31.872h16.08zM68.172 43.18 61.26 26.02c-.24-.56-.472-1.232-.696-2.016-.096.384-.2.752-.312 1.104a10.42 10.42 0 0 1-.36.936L52.98 43.18h15.192zm7.512 12.336h-1.896a.873.873 0 0 1-.552-.168 1.3 1.3 0 0 1-.336-.48l-3.984-9.864h-16.68l-3.984 9.864a1.03 1.03 0 0 1-.336.456.893.893 0 0 1-.576.192h-1.872l13.896-33.96h2.424l13.896 33.96zm24.078-1.752c1.632 0 3.088-.28 4.368-.84 1.296-.576 2.392-1.368 3.288-2.376.896-1.008 1.576-2.192 2.04-3.552.48-1.376.72-2.856.72-4.44v-21h2.448v21c0 1.872-.296 3.624-.888 5.256a12.59 12.59 0 0 1-2.568 4.248c-1.104 1.2-2.456 2.144-4.056 2.832-1.584.688-3.368 1.032-5.352 1.032-1.984 0-3.776-.344-5.376-1.032-1.584-.688-2.936-1.632-4.056-2.832-1.104-1.216-1.952-2.632-2.544-4.248-.592-1.632-.888-3.384-.888-5.256v-21h2.472v20.976c0 1.584.232 3.064.696 4.44.48 1.36 1.16 2.544 2.04 3.552A9.551 9.551 0 0 0 95.37 52.9c1.296.576 2.76.864 4.392.864zM42.75 96.18l-6.912-17.16c-.24-.56-.472-1.232-.696-2.016-.096.384-.2.752-.312 1.104a10.42 10.42 0 0 1-.36.936L27.557 96.18H42.75zm7.512 12.336h-1.896a.873.873 0 0 1-.552-.168 1.3 1.3 0 0 1-.336-.48l-3.984-9.864h-16.68l-3.984 9.864a1.03 1.03 0 0 1-.336.456.893.893 0 0 1-.576.192h-1.872l13.896-33.96h2.424l13.896 33.96zm30.901-2.088v2.088H62.61v-33.96h2.472v31.872h16.08zm29.748-29.784H98.982v31.872H96.51V76.644h-12v-2.088h26.4v2.088z" fill="#fff"/>
    <path stroke="#fff" d="M.5.5h131v131H.5z"/>
</svg>
