<svg width="73" height="25" viewBox="0 0 73 25" fill="none" xmlns="http://www.w3.org/2000/svg">
<path d="M13.656 4.656C13.56 4.816 13.4533 4.93867 13.336 5.024C13.2293 5.09867 13.096 5.136 12.936 5.136C12.7547 5.136 12.5413 5.04533 12.296 4.864C12.0507 4.68267 11.7413 4.48533 11.368 4.272C11.0053 4.048 10.5627 3.84533 10.04 3.664C9.528 3.48267 8.904 3.392 8.168 3.392C7.47467 3.392 6.86133 3.488 6.328 3.68C5.80533 3.86133 5.36267 4.112 5 4.432C4.648 4.752 4.38133 5.13067 4.2 5.568C4.01867 5.99467 3.928 6.45867 3.928 6.96C3.928 7.6 4.08267 8.13333 4.392 8.56C4.712 8.976 5.128 9.33333 5.64 9.632C6.16267 9.93067 6.74933 10.192 7.4 10.416C8.06133 10.6293 8.73333 10.8533 9.416 11.088C10.1093 11.3227 10.7813 11.5893 11.432 11.888C12.0933 12.176 12.68 12.544 13.192 12.992C13.7147 13.44 14.1307 13.9893 14.44 14.64C14.76 15.2907 14.92 16.0907 14.92 17.04C14.92 18.0427 14.7493 18.9867 14.408 19.872C14.0667 20.7467 13.5653 21.5093 12.904 22.16C12.2533 22.8107 11.448 23.3227 10.488 23.696C9.53867 24.0693 8.456 24.256 7.24 24.256C5.74667 24.256 4.392 23.9893 3.176 23.456C1.96 22.912 0.92 22.1813 0.056 21.264L0.952 19.792C1.03733 19.6747 1.13867 19.5787 1.256 19.504C1.384 19.4187 1.52267 19.376 1.672 19.376C1.81067 19.376 1.96533 19.4347 2.136 19.552C2.31733 19.6587 2.52 19.7973 2.744 19.968C2.968 20.1387 3.224 20.3253 3.512 20.528C3.8 20.7307 4.12533 20.9173 4.488 21.088C4.86133 21.2587 5.28267 21.4027 5.752 21.52C6.22133 21.6267 6.74933 21.68 7.336 21.68C8.072 21.68 8.728 21.5787 9.304 21.376C9.88 21.1733 10.3653 20.8907 10.76 20.528C11.1653 20.1547 11.4747 19.712 11.688 19.2C11.9013 18.688 12.008 18.1173 12.008 17.488C12.008 16.7947 11.848 16.2293 11.528 15.792C11.2187 15.344 10.808 14.9707 10.296 14.672C9.784 14.3733 9.19733 14.1227 8.536 13.92C7.87467 13.7067 7.20267 13.4933 6.52 13.28C5.83733 13.056 5.16533 12.8 4.504 12.512C3.84267 12.224 3.256 11.8507 2.744 11.392C2.232 10.9333 1.816 10.3627 1.496 9.68C1.18667 8.98667 1.032 8.13333 1.032 7.12C1.032 6.30933 1.18667 5.52533 1.496 4.768C1.816 4.01067 2.27467 3.33867 2.872 2.752C3.48 2.16533 4.22133 1.696 5.096 1.344C5.98133 0.991999 6.99467 0.815998 8.136 0.815998C9.416 0.815998 10.5787 1.01867 11.624 1.424C12.68 1.82933 13.608 2.416 14.408 3.184L13.656 4.656ZM31.7128 15.488L28.1128 6.16C28.0061 5.88267 27.8941 5.56267 27.7767 5.2C27.6594 4.82667 27.5474 4.432 27.4408 4.016C27.2167 4.88 26.9874 5.6 26.7527 6.176L23.1527 15.488H31.7128ZM38.1768 24H35.7768C35.4994 24 35.2754 23.9307 35.1047 23.792C34.9341 23.6533 34.8061 23.4773 34.7208 23.264L32.5767 17.728H22.2887L20.1447 23.264C20.0807 23.456 19.9581 23.6267 19.7767 23.776C19.5954 23.9253 19.3714 24 19.1047 24H16.7047L25.8728 1.072H29.0087L38.1768 24ZM53.561 4.656C53.465 4.816 53.3583 4.93867 53.241 5.024C53.1343 5.09867 53.001 5.136 52.841 5.136C52.6597 5.136 52.4463 5.04533 52.201 4.864C51.9557 4.68267 51.6463 4.48533 51.273 4.272C50.9103 4.048 50.4677 3.84533 49.945 3.664C49.433 3.48267 48.809 3.392 48.073 3.392C47.3797 3.392 46.7663 3.488 46.233 3.68C45.7103 3.86133 45.2677 4.112 44.905 4.432C44.553 4.752 44.2863 5.13067 44.105 5.568C43.9237 5.99467 43.833 6.45867 43.833 6.96C43.833 7.6 43.9877 8.13333 44.297 8.56C44.617 8.976 45.033 9.33333 45.545 9.632C46.0677 9.93067 46.6543 10.192 47.305 10.416C47.9663 10.6293 48.6383 10.8533 49.321 11.088C50.0143 11.3227 50.6863 11.5893 51.337 11.888C51.9983 12.176 52.585 12.544 53.097 12.992C53.6197 13.44 54.0357 13.9893 54.345 14.64C54.665 15.2907 54.825 16.0907 54.825 17.04C54.825 18.0427 54.6543 18.9867 54.313 19.872C53.9717 20.7467 53.4703 21.5093 52.809 22.16C52.1583 22.8107 51.353 23.3227 50.393 23.696C49.4437 24.0693 48.361 24.256 47.145 24.256C45.6517 24.256 44.297 23.9893 43.081 23.456C41.865 22.912 40.825 22.1813 39.961 21.264L40.857 19.792C40.9423 19.6747 41.0437 19.5787 41.161 19.504C41.289 19.4187 41.4277 19.376 41.577 19.376C41.7157 19.376 41.8703 19.4347 42.041 19.552C42.2223 19.6587 42.425 19.7973 42.649 19.968C42.873 20.1387 43.129 20.3253 43.417 20.528C43.705 20.7307 44.0303 20.9173 44.393 21.088C44.7663 21.2587 45.1877 21.4027 45.657 21.52C46.1263 21.6267 46.6543 21.68 47.241 21.68C47.977 21.68 48.633 21.5787 49.209 21.376C49.785 21.1733 50.2703 20.8907 50.665 20.528C51.0703 20.1547 51.3797 19.712 51.593 19.2C51.8063 18.688 51.913 18.1173 51.913 17.488C51.913 16.7947 51.753 16.2293 51.433 15.792C51.1237 15.344 50.713 14.9707 50.201 14.672C49.689 14.3733 49.1023 14.1227 48.441 13.92C47.7797 13.7067 47.1077 13.4933 46.425 13.28C45.7423 13.056 45.0703 12.8 44.409 12.512C43.7477 12.224 43.161 11.8507 42.649 11.392C42.137 10.9333 41.721 10.3627 41.401 9.68C41.0917 8.98667 40.937 8.13333 40.937 7.12C40.937 6.30933 41.0917 5.52533 41.401 4.768C41.721 4.01067 42.1797 3.33867 42.777 2.752C43.385 2.16533 44.1263 1.696 45.001 1.344C45.8863 0.991999 46.8997 0.815998 48.041 0.815998C49.321 0.815998 50.4837 1.01867 51.529 1.424C52.585 1.82933 53.513 2.416 54.313 3.184L53.561 4.656ZM71.576 4.656C71.48 4.816 71.3733 4.93867 71.256 5.024C71.1493 5.09867 71.016 5.136 70.856 5.136C70.6747 5.136 70.4613 5.04533 70.216 4.864C69.9707 4.68267 69.6613 4.48533 69.288 4.272C68.9253 4.048 68.4827 3.84533 67.96 3.664C67.448 3.48267 66.824 3.392 66.088 3.392C65.3947 3.392 64.7813 3.488 64.248 3.68C63.7253 3.86133 63.2827 4.112 62.92 4.432C62.568 4.752 62.3013 5.13067 62.12 5.568C61.9387 5.99467 61.848 6.45867 61.848 6.96C61.848 7.6 62.0027 8.13333 62.312 8.56C62.632 8.976 63.048 9.33333 63.56 9.632C64.0827 9.93067 64.6693 10.192 65.32 10.416C65.9813 10.6293 66.6533 10.8533 67.336 11.088C68.0293 11.3227 68.7013 11.5893 69.352 11.888C70.0133 12.176 70.6 12.544 71.112 12.992C71.6347 13.44 72.0507 13.9893 72.36 14.64C72.68 15.2907 72.84 16.0907 72.84 17.04C72.84 18.0427 72.6693 18.9867 72.328 19.872C71.9867 20.7467 71.4853 21.5093 70.824 22.16C70.1733 22.8107 69.368 23.3227 68.408 23.696C67.4587 24.0693 66.376 24.256 65.16 24.256C63.6667 24.256 62.312 23.9893 61.096 23.456C59.88 22.912 58.84 22.1813 57.976 21.264L58.872 19.792C58.9573 19.6747 59.0587 19.5787 59.176 19.504C59.304 19.4187 59.4427 19.376 59.592 19.376C59.7307 19.376 59.8853 19.4347 60.056 19.552C60.2373 19.6587 60.44 19.7973 60.664 19.968C60.888 20.1387 61.144 20.3253 61.432 20.528C61.72 20.7307 62.0453 20.9173 62.408 21.088C62.7813 21.2587 63.2027 21.4027 63.672 21.52C64.1413 21.6267 64.6693 21.68 65.256 21.68C65.992 21.68 66.648 21.5787 67.224 21.376C67.8 21.1733 68.2853 20.8907 68.68 20.528C69.0853 20.1547 69.3947 19.712 69.608 19.2C69.8213 18.688 69.928 18.1173 69.928 17.488C69.928 16.7947 69.768 16.2293 69.448 15.792C69.1387 15.344 68.728 14.9707 68.216 14.672C67.704 14.3733 67.1173 14.1227 66.456 13.92C65.7947 13.7067 65.1227 13.4933 64.44 13.28C63.7573 13.056 63.0853 12.8 62.424 12.512C61.7627 12.224 61.176 11.8507 60.664 11.392C60.152 10.9333 59.736 10.3627 59.416 9.68C59.1067 8.98667 58.952 8.13333 58.952 7.12C58.952 6.30933 59.1067 5.52533 59.416 4.768C59.736 4.01067 60.1947 3.33867 60.792 2.752C61.4 2.16533 62.1413 1.696 63.016 1.344C63.9013 0.991999 64.9147 0.815998 66.056 0.815998C67.336 0.815998 68.4987 1.01867 69.544 1.424C70.6 1.82933 71.528 2.416 72.328 3.184L71.576 4.656Z" fill="#B698DD"/>
</svg>
